<svg width="1600" height="1100" viewBox="0 0 1600 1100" fill="none" xmlns="http://www.w3.org/2000/svg">
  <rect width="1600" height="1100" fill="#C8B28D"/>
  <rect width="1600" height="620" fill="url(#paint0_linear)"/>
  <rect y="620" width="1600" height="480" fill="#B58E5A"/>
  <rect x="180" y="350" width="1240" height="520" rx="22" fill="#D8C4A4"/>
  <rect x="250" y="270" width="1100" height="540" rx="18" fill="#F2E7D4"/>
  <rect x="330" y="330" width="480" height="390" fill="#4F5D66"/>
  <rect x="860" y="330" width="420" height="390" fill="#5F6E79"/>
  <rect x="500" y="400" width="140" height="210" fill="#EDD3A4"/>
  <rect x="950" y="400" width="210" height="210" fill="#E5D7BE"/>
  <rect x="250" y="790" width="1100" height="20" fill="#86653F"/>
  <rect x="960" y="720" width="190" height="150" fill="#7A5B35"/>
  <rect x="0" y="880" width="1600" height="220" fill="#6F8A57"/>
  <circle cx="235" cy="850" r="90" fill="#5E7348"/>
  <circle cx="1360" cy="880" r="120" fill="#5A7046"/>
  <path d="M0 620H1600V720L0 760V620Z" fill="url(#paint1_linear)" fill-opacity="0.4"/>
  <defs>
    <linearGradient id="paint0_linear" x1="800" y1="0" x2="800" y2="620" gradientUnits="userSpaceOnUse">
      <stop stop-color="#DED6CA"/>
      <stop offset="1" stop-color="#B4C2CF"/>
    </linearGradient>
    <linearGradient id="paint1_linear" x1="800" y1="620" x2="800" y2="760" gradientUnits="userSpaceOnUse">
      <stop stop-color="#F5E9D5"/>
      <stop offset="1" stop-color="#B58E5A" stop-opacity="0"/>
    </linearGradient>
  </defs>
</svg>
